<svg xmlns="http://www.w3.org/2000/svg" xmlns:xlink="http://www.w3.org/1999/xlink" id="processonSvg1000" viewBox="192.0 79.0 851.0 561.0" width="851.0" height="561.0"><defs id="ProcessOnDefs1001"><marker id="ProcessOnMarker1022" markerUnits="userSpaceOnUse" orient="auto" markerWidth="16.23606797749979" markerHeight="10.550836550532098" viewBox="-1.0 -1.3763819204711736 16.23606797749979 10.550836550532098" refX="-1.0" refY="3.8990363547948754"><path id="ProcessOnPath1023" d="M12.0 3.8990363547948754L0.0 7.798072709589751V0.0Z" stroke="#323232" stroke-width="2.0" fill="#323232" transform="matrix(1.0,0.0,0.0,1.0,0.0,0.0)"/></marker><marker id="ProcessOnMarker1034" markerUnits="userSpaceOnUse" orient="auto" markerWidth="16.23606797749979" markerHeight="10.550836550532098" viewBox="-1.0 -1.3763819204711736 16.23606797749979 10.550836550532098" refX="-1.0" refY="3.8990363547948754"><path id="ProcessOnPath1035" d="M12.0 3.8990363547948754L0.0 7.798072709589751V0.0Z" stroke="#323232" stroke-width="2.0" fill="#323232" transform="matrix(1.0,0.0,0.0,1.0,0.0,0.0)"/></marker><marker id="ProcessOnMarker1042" markerUnits="userSpaceOnUse" orient="auto" markerWidth="16.23606797749979" markerHeight="10.550836550532098" viewBox="-1.0 -1.3763819204711736 16.23606797749979 10.550836550532098" refX="-1.0" refY="3.8990363547948754"><path id="ProcessOnPath1043" d="M12.0 3.8990363547948754L0.0 7.798072709589751V0.0Z" stroke="#323232" stroke-width="2.0" fill="#323232" transform="matrix(1.0,0.0,0.0,1.0,0.0,0.0)"/></marker><marker id="ProcessOnMarker1051" markerUnits="userSpaceOnUse" orient="auto" markerWidth="16.23606797749979" markerHeight="10.550836550532098" viewBox="-1.0 -1.3763819204711736 16.23606797749979 10.550836550532098" refX="-1.0" refY="3.8990363547948754"><path id="ProcessOnPath1052" d="M12.0 3.8990363547948754L0.0 7.798072709589751V0.0Z" stroke="#323232" stroke-width="2.0" fill="#323232" transform="matrix(1.0,0.0,0.0,1.0,0.0,0.0)"/></marker><marker id="ProcessOnMarker1063" markerUnits="userSpaceOnUse" orient="auto" markerWidth="16.23606797749979" markerHeight="10.550836550532098" viewBox="-1.0 -1.3763819204711736 16.23606797749979 10.550836550532098" refX="-1.0" refY="3.8990363547948754"><path id="ProcessOnPath1064" d="M12.0 3.8990363547948754L0.0 7.798072709589751V0.0Z" stroke="#323232" stroke-width="2.0" fill="#323232" transform="matrix(1.0,0.0,0.0,1.0,0.0,0.0)"/></marker><marker id="ProcessOnMarker1071" markerUnits="userSpaceOnUse" orient="auto" markerWidth="16.23606797749979" markerHeight="10.550836550532098" viewBox="-1.0 -1.3763819204711736 16.23606797749979 10.550836550532098" refX="-1.0" refY="3.8990363547948754"><path id="ProcessOnPath1072" d="M12.0 3.8990363547948754L0.0 7.798072709589751V0.0Z" stroke="#323232" stroke-width="2.0" fill="#323232" transform="matrix(1.0,0.0,0.0,1.0,0.0,0.0)"/></marker><marker id="ProcessOnMarker1088" markerUnits="userSpaceOnUse" orient="auto" markerWidth="16.23606797749979" markerHeight="10.550836550532098" viewBox="-1.0 -1.3763819204711736 16.23606797749979 10.550836550532098" refX="-1.0" refY="3.8990363547948754"><path id="ProcessOnPath1089" d="M12.0 3.8990363547948754L0.0 7.798072709589751V0.0Z" stroke="#323232" stroke-width="2.0" fill="#323232" transform="matrix(1.0,0.0,0.0,1.0,0.0,0.0)"/></marker><marker id="ProcessOnMarker1096" markerUnits="userSpaceOnUse" orient="auto" markerWidth="16.23606797749979" markerHeight="10.550836550532098" viewBox="-1.0 -1.3763819204711736 16.23606797749979 10.550836550532098" refX="-1.0" refY="3.8990363547948754"><path id="ProcessOnPath1097" d="M12.0 3.8990363547948754L0.0 7.798072709589751V0.0Z" stroke="#323232" stroke-width="2.0" fill="#323232" transform="matrix(1.0,0.0,0.0,1.0,0.0,0.0)"/></marker><marker id="ProcessOnMarker1105" markerUnits="userSpaceOnUse" orient="auto" markerWidth="16.23606797749979" markerHeight="10.550836550532098" viewBox="-1.0 -1.3763819204711736 16.23606797749979 10.550836550532098" refX="-1.0" refY="3.8990363547948754"><path id="ProcessOnPath1106" d="M12.0 3.8990363547948754L0.0 7.798072709589751V0.0Z" stroke="#323232" stroke-width="2.0" fill="#323232" transform="matrix(1.0,0.0,0.0,1.0,0.0,0.0)"/></marker><marker id="ProcessOnMarker1109" markerUnits="userSpaceOnUse" orient="auto" markerWidth="16.23606797749979" markerHeight="10.550836550532098" viewBox="-1.0 -1.3763819204711736 16.23606797749979 10.550836550532098" refX="-1.0" refY="3.8990363547948754"><path id="ProcessOnPath1110" d="M12.0 3.8990363547948754L0.0 7.798072709589751V0.0Z" stroke="#323232" stroke-width="2.0" fill="#323232" transform="matrix(1.0,0.0,0.0,1.0,0.0,0.0)"/></marker><marker id="ProcessOnMarker1113" markerUnits="userSpaceOnUse" orient="auto" markerWidth="16.23606797749979" markerHeight="10.550836550532098" viewBox="-1.0 -1.3763819204711736 16.23606797749979 10.550836550532098" refX="-1.0" refY="3.8990363547948754"><path id="ProcessOnPath1114" d="M12.0 3.8990363547948754L0.0 7.798072709589751V0.0Z" stroke="#323232" stroke-width="2.0" fill="#323232" transform="matrix(1.0,0.0,0.0,1.0,0.0,0.0)"/></marker><marker id="ProcessOnMarker1134" markerUnits="userSpaceOnUse" orient="auto" markerWidth="16.23606797749979" markerHeight="10.550836550532098" viewBox="-1.0 -1.3763819204711736 16.23606797749979 10.550836550532098" refX="-1.0" refY="3.8990363547948754"><path id="ProcessOnPath1135" d="M12.0 3.8990363547948754L0.0 7.798072709589751V0.0Z" stroke="#323232" stroke-width="2.0" fill="#323232" transform="matrix(1.0,0.0,0.0,1.0,0.0,0.0)"/></marker><marker id="ProcessOnMarker1138" markerUnits="userSpaceOnUse" orient="auto" markerWidth="16.23606797749979" markerHeight="10.550836550532098" viewBox="-1.0 -1.3763819204711736 16.23606797749979 10.550836550532098" refX="-1.0" refY="3.8990363547948754"><path id="ProcessOnPath1139" d="M12.0 3.8990363547948754L0.0 7.798072709589751V0.0Z" stroke="#323232" stroke-width="2.0" fill="#323232" transform="matrix(1.0,0.0,0.0,1.0,0.0,0.0)"/></marker></defs><g id="ProcessOnG1002"><path id="ProcessOnPath1003" d="M192.0 79.0H1043.0V640.0H192.0V79.0Z" fill="none"/><g id="ProcessOnG1004"><g id="ProcessOnG1005" transform="matrix(1.0,0.0,0.0,1.0,507.0,190.0)" opacity="1.0"><path id="ProcessOnPath1006" d="M0.0 0.0L357.0 0.0L357.0 332.0L0.0 332.0Z" stroke="#323232" stroke-width="2.0" stroke-dasharray="10.0 4.0" opacity="1.0" fill="#ffffff"/></g><g id="ProcessOnG1007" transform="matrix(1.0,0.0,0.0,1.0,212.0,216.0)" opacity="1.0"><path id="ProcessOnPath1008" d="M16.666666666666668 0.0L83.33333333333333 0.0C105.55555555555556 0.0 105.55555555555556 50.0 83.33333333333333 50.0L16.666666666666668 50.0C-5.555555555555556 50.0 -5.555555555555556 0.0 16.666666666666668 0.0Z" stroke="#000000" stroke-width="2.0" stroke-dasharray="none" opacity="1.0" fill="#cce5ff"/><g id="ProcessOnG1009" transform="matrix(1.0,0.0,0.0,1.0,10.0,16.875)"><text id="ProcessOnText1010" fill="#000000" font-size="13" x="39.0" y="13.325" font-family="Comic Sans MS" font-weight="normal" font-style="normal" text-decoration="none" family="Comic Sans MS" text-anchor="middle" size="13">start</text></g></g><g id="ProcessOnG1011" transform="matrix(1.0,0.0,0.0,1.0,217.0,321.0)" opacity="1.0"><path id="ProcessOnPath1012" d="M0.0 35.0L45.0 0.0L90.0 35.0L45.0 70.0L0.0 35.0Z" stroke="#323232" stroke-width="2.0" stroke-dasharray="none" opacity="1.0" fill="#e6ffcc"/><g id="ProcessOnG1013" transform="matrix(1.0,0.0,0.0,1.0,10.0,27.5)"><text id="ProcessOnText1014" fill="#454545" font-size="12" x="34.0" y="12.3" font-family="Comic Sans MS" font-weight="normal" font-style="normal" text-decoration="none" family="Comic Sans MS" text-anchor="middle" size="12">tryAcquire</text></g></g><g id="ProcessOnG1015" transform="matrix(1.0,0.0,0.0,1.0,358.0,329.0)" opacity="1.0"><path id="ProcessOnPath1016" d="M0.0 0.0L101.0 0.0L101.0 54.0L0.0 54.0Z" stroke="#323232" stroke-width="2.0" stroke-dasharray="none" opacity="1.0" fill="#ffffff"/><g id="ProcessOnG1017" transform="matrix(1.0,0.0,0.0,1.0,10.0,10.75)"><text id="ProcessOnText1018" fill="#454545" font-size="13" x="39.5" y="13.325" font-family="Comic Sans MS" font-weight="normal" font-style="normal" text-decoration="none" family="Comic Sans MS" text-anchor="middle" size="13">new node</text><text id="ProcessOnText1019" fill="#454545" font-size="13" x="39.5" y="29.575" font-family="Comic Sans MS" font-weight="normal" font-style="normal" text-decoration="none" family="Comic Sans MS" text-anchor="middle" size="13">add waiter</text></g></g><g id="ProcessOnG1020"><path id="ProcessOnPath1021" d="M307.0 356.0L332.5 356.0L332.5 356.0L342.7639320225002 356.0" stroke="#323232" stroke-width="2.0" stroke-dasharray="none" fill="none" marker-end="url(#ProcessOnMarker1022)"/></g><g id="ProcessOnG1024" transform="matrix(1.0,0.0,0.0,1.0,246.0,327.0)" opacity="1.0"><path id="ProcessOnPath1025" d="M0.0 0.0L160.0 0.0L160.0 40.0L0.0 40.0Z" stroke="none" stroke-width="0.0" stroke-dasharray="none" opacity="1.0" fill="none"/><g id="ProcessOnG1026" transform="matrix(1.0,0.0,0.0,1.0,0.0,12.5)"><text id="ProcessOnText1027" fill="#000000" font-size="12" x="79.0" y="12.3" font-family="Comic Sans MS" font-weight="bold" font-style="normal" text-decoration="none" family="Comic Sans MS" text-anchor="middle" size="12">fail</text></g></g><g id="ProcessOnG1028" transform="matrix(1.0,0.0,0.0,1.0,923.0,222.0)" opacity="1.0"><path id="ProcessOnPath1029" d="M16.666666666666668 0.0L83.33333333333333 0.0C105.55555555555556 0.0 105.55555555555556 50.0 83.33333333333333 50.0L16.666666666666668 50.0C-5.555555555555556 50.0 -5.555555555555556 0.0 16.666666666666668 0.0Z" stroke="#323232" stroke-width="2.0" stroke-dasharray="none" opacity="1.0" fill="#cce5ff"/><g id="ProcessOnG1030" transform="matrix(1.0,0.0,0.0,1.0,10.0,16.875)"><text id="ProcessOnText1031" fill="#000000" font-size="13" x="39.0" y="13.325" font-family="Comic Sans MS" font-weight="normal" font-style="normal" text-decoration="none" family="Comic Sans MS" text-anchor="middle" size="13">end</text></g></g><g id="ProcessOnG1032"><path id="ProcessOnPath1033" d="M262.0 391.0L262.0 583.0L973.0 583.0L973.0 287.2360679774998" stroke="#323232" stroke-width="2.0" stroke-dasharray="none" fill="none" marker-end="url(#ProcessOnMarker1034)"/></g><g id="ProcessOnG1036" transform="matrix(1.0,0.0,0.0,1.0,532.0,580.0)" opacity="1.0"><path id="ProcessOnPath1037" d="M0.0 0.0L160.0 0.0L160.0 40.0L0.0 40.0Z" stroke="none" stroke-width="0.0" stroke-dasharray="none" opacity="1.0" fill="none"/><g id="ProcessOnG1038" transform="matrix(1.0,0.0,0.0,1.0,0.0,11.875)"><text id="ProcessOnText1039" fill="#000000" font-size="13" x="79.0" y="13.325" font-family="Comic Sans MS" font-weight="bold" font-style="normal" text-decoration="none" family="Comic Sans MS" text-anchor="middle" size="13">success</text></g></g><g id="ProcessOnG1040"><path id="ProcessOnPath1041" d="M807.0 247.0L865.0 247.0L865.0 247.0L907.7639320225002 247.0" stroke="#323232" stroke-width="2.0" stroke-dasharray="none" fill="none" marker-end="url(#ProcessOnMarker1042)"/></g><g id="ProcessOnG1044" transform="matrix(1.0,0.0,0.0,1.0,580.0,203.5)" opacity="1.0"><path id="ProcessOnPath1045" d="M0.0 43.5L61.5 0.0L123.0 43.5L61.5 87.0L0.0 43.5Z" stroke="#323232" stroke-width="2.0" stroke-dasharray="none" opacity="1.0" fill="#e6ffcc"/><g id="ProcessOnG1046" transform="matrix(1.0,0.0,0.0,1.0,10.0,28.5)"><text id="ProcessOnText1047" fill="#000000" font-size="12" x="50.5" y="12.3" font-family="Comic Sans MS" font-weight="normal" font-style="normal" text-decoration="none" family="Comic Sans MS" text-anchor="middle" size="12">pred == head &amp;&amp;</text><text id="ProcessOnText1048" fill="#000000" font-size="12" x="50.5" y="27.3" font-family="Comic Sans MS" font-weight="normal" font-style="normal" text-decoration="none" family="Comic Sans MS" text-anchor="middle" size="12">tryAcquire</text></g></g><g id="ProcessOnG1049"><path id="ProcessOnPath1050" d="M459.0 356.0L483.0 356.0L483.0 356.0L491.7639320225002 356.0" stroke="#323232" stroke-width="2.0" stroke-dasharray="none" fill="none" marker-end="url(#ProcessOnMarker1051)"/></g><g id="ProcessOnG1053" transform="matrix(1.0,0.0,0.0,1.0,591.0,333.0)" opacity="1.0"><path id="ProcessOnPath1054" d="M0.0 35.0L50.5 0.0L101.0 35.0L50.5 70.0L0.0 35.0Z" stroke="#323232" stroke-width="2.0" stroke-dasharray="none" opacity="1.0" fill="#ccffcc"/><g id="ProcessOnG1055" transform="matrix(1.0,0.0,0.0,1.0,10.0,26.875)"><text id="ProcessOnText1056" fill="#000000" font-size="13" x="39.5" y="13.325" font-family="Comic Sans MS" font-weight="normal" font-style="normal" text-decoration="none" family="Comic Sans MS" text-anchor="middle" size="13">shouldPark</text></g></g><g id="ProcessOnG1057" transform="matrix(1.0,0.0,0.0,1.0,771.0,225.0)" opacity="1.0"><path id="ProcessOnPath1058" d="M0.0 0.0L77.0 0.0L77.0 44.0L0.0 44.0Z" stroke="#323232" stroke-width="2.0" stroke-dasharray="none" opacity="1.0" fill="#ffffff"/><g id="ProcessOnG1059" transform="matrix(1.0,0.0,0.0,1.0,10.0,14.5)"><text id="ProcessOnText1060" fill="#000000" font-size="12" x="27.5" y="12.3" font-family="Comic Sans MS" font-weight="normal" font-style="normal" text-decoration="none" family="Comic Sans MS" text-anchor="middle" size="12">setHead</text></g></g><g id="ProcessOnG1061"><path id="ProcessOnPath1062" d="M703.0 247.0L737.0 247.0L737.0 247.0L755.7639320225002 247.0" stroke="#323232" stroke-width="2.0" stroke-dasharray="none" fill="none" marker-end="url(#ProcessOnMarker1063)"/></g><g id="ProcessOnG1065" transform="matrix(1.0,0.0,0.0,1.0,649.0,216.0)" opacity="1.0"><path id="ProcessOnPath1066" d="M0.0 0.0L160.0 0.0L160.0 40.0L0.0 40.0Z" stroke="none" stroke-width="0.0" stroke-dasharray="none" opacity="1.0" fill="none"/><g id="ProcessOnG1067" transform="matrix(1.0,0.0,0.0,1.0,0.0,12.5)"><text id="ProcessOnText1068" fill="#000000" font-size="12" x="79.0" y="12.3" font-family="Comic Sans MS" font-weight="bold" font-style="normal" text-decoration="none" family="Comic Sans MS" text-anchor="middle" size="12">success</text></g></g><g id="ProcessOnG1069"><path id="ProcessOnPath1070" d="M641.5 290.5L641.5 311.75L641.5 311.75L641.5 317.7639320225002" stroke="#323232" stroke-width="2.0" stroke-dasharray="none" fill="none" marker-end="url(#ProcessOnMarker1071)"/></g><g id="ProcessOnG1073" transform="matrix(1.0,0.0,0.0,1.0,583.0,287.0)" opacity="1.0"><path id="ProcessOnPath1074" d="M0.0 0.0L160.0 0.0L160.0 40.0L0.0 40.0Z" stroke="none" stroke-width="0.0" stroke-dasharray="none" opacity="1.0" fill="none"/><g id="ProcessOnG1075" transform="matrix(1.0,0.0,0.0,1.0,0.0,12.5)"><text id="ProcessOnText1076" fill="#000000" font-size="12" x="79.0" y="12.3" font-family="Comic Sans MS" font-weight="bold" font-style="normal" text-decoration="none" family="Comic Sans MS" text-anchor="middle" size="12">fail</text></g></g><g id="ProcessOnG1077" transform="matrix(1.0,0.0,0.0,1.0,759.0,434.0)" opacity="1.0"><path id="ProcessOnPath1078" d="M0.0 35.0C0.0 -11.666666666666666 70.0 -11.666666666666666 70.0 35.0C70.0 81.66666666666667 0.0 81.66666666666667 0.0 35.0Z" stroke="#323232" stroke-width="2.0" stroke-dasharray="none" opacity="1.0" fill="#ff9999"/><g id="ProcessOnG1079" transform="matrix(1.0,0.0,0.0,1.0,10.0,20.0)"><text id="ProcessOnText1080" fill="#000000" font-size="12" x="24.0" y="12.3" font-family="Comic Sans MS" font-weight="normal" font-style="normal" text-decoration="none" family="Comic Sans MS" text-anchor="middle" size="12">thread</text><text id="ProcessOnText1081" fill="#000000" font-size="12" x="24.0" y="27.3" font-family="Comic Sans MS" font-weight="normal" font-style="normal" text-decoration="none" family="Comic Sans MS" text-anchor="middle" size="12">blocked</text></g></g><g id="ProcessOnG1082" transform="matrix(1.0,0.0,0.0,1.0,630.0,333.0)" opacity="1.0"><path id="ProcessOnPath1083" d="M0.0 0.0L160.0 0.0L160.0 40.0L0.0 40.0Z" stroke="none" stroke-width="0.0" stroke-dasharray="none" opacity="1.0" fill="none"/><g id="ProcessOnG1084" transform="matrix(1.0,0.0,0.0,1.0,0.0,12.5)"><text id="ProcessOnText1085" fill="#000000" font-size="12" x="79.0" y="12.3" font-family="Comic Sans MS" font-weight="bold" font-style="normal" text-decoration="none" family="Comic Sans MS" text-anchor="middle" size="12">Yes</text></g></g><g id="ProcessOnG1086"><path id="ProcessOnPath1087" d="M591.0 368.0L554.0 368.0L554.0 247.0L564.7639320225002 247.0" stroke="#323232" stroke-width="2.0" stroke-dasharray="none" fill="none" marker-end="url(#ProcessOnMarker1088)"/></g><g id="ProcessOnG1090" transform="matrix(1.0,0.0,0.0,1.0,489.0,278.0)" opacity="1.0"><path id="ProcessOnPath1091" d="M0.0 0.0L160.0 0.0L160.0 40.0L0.0 40.0Z" stroke="none" stroke-width="0.0" stroke-dasharray="none" opacity="1.0" fill="none"/><g id="ProcessOnG1092" transform="matrix(1.0,0.0,0.0,1.0,0.0,12.5)"><text id="ProcessOnText1093" fill="#000000" font-size="12" x="79.0" y="12.3" font-family="Comic Sans MS" font-weight="bold" font-style="normal" text-decoration="none" family="Comic Sans MS" text-anchor="middle" size="12">No</text></g></g><g id="ProcessOnG1094"><path id="ProcessOnPath1095" d="M262.0 266.0L262.0 305.7639320225002" stroke="#323232" stroke-width="2.0" stroke-dasharray="none" fill="none" marker-end="url(#ProcessOnMarker1096)"/></g><g id="ProcessOnG1098" transform="matrix(1.0,0.0,0.0,1.0,743.0,348.0)" opacity="1.0"><path id="ProcessOnPath1099" d="M0.0 0.0L102.0 0.0L102.0 40.0L0.0 40.0Z" stroke="#323232" stroke-width="2.0" stroke-dasharray="none" opacity="1.0" fill="#ffffff"/><g id="ProcessOnG1100" transform="matrix(1.0,0.0,0.0,1.0,10.0,5.0)"><text id="ProcessOnText1101" fill="#000000" font-size="12" x="40.0" y="12.3" font-family="Comic Sans MS" font-weight="normal" font-style="normal" text-decoration="none" family="Comic Sans MS" text-anchor="middle" size="12">parkAndCheck</text><text id="ProcessOnText1102" fill="#000000" font-size="12" x="40.0" y="27.3" font-family="Comic Sans MS" font-weight="normal" font-style="normal" text-decoration="none" family="Comic Sans MS" text-anchor="middle" size="12">Interrupt</text></g></g><g id="ProcessOnG1103"><path id="ProcessOnPath1104" d="M692.0 368.0L727.7639320225002 368.0" stroke="#323232" stroke-width="2.0" stroke-dasharray="none" fill="none" marker-end="url(#ProcessOnMarker1105)"/></g><g id="ProcessOnG1107"><path id="ProcessOnPath1108" d="M794.0 388.0L794.0 415.7639320225002" stroke="#323232" stroke-width="2.0" stroke-dasharray="none" fill="none" marker-end="url(#ProcessOnMarker1109)"/></g><g id="ProcessOnG1111"><path id="ProcessOnPath1112" d="M759.0 469.0L528.0 469.0L528.0 247.0L564.7639320225002 247.0" stroke="#323232" stroke-width="2.0" stroke-dasharray="10.0 4.0 2.0 4.0" fill="none" marker-end="url(#ProcessOnMarker1113)"/></g><g id="ProcessOnG1115" transform="matrix(1.0,0.0,0.0,1.0,570.0,429.0)" opacity="1.0"><path id="ProcessOnPath1116" d="M0.0 0.0L160.0 0.0L160.0 40.0L0.0 40.0Z" stroke="none" stroke-width="0.0" stroke-dasharray="none" opacity="1.0" fill="none"/><g id="ProcessOnG1117" transform="matrix(1.0,0.0,0.0,1.0,0.0,5.0)"><text id="ProcessOnText1118" fill="#000000" font-size="12" x="79.0" y="12.3" font-family="Comic Sans MS" font-weight="bold" font-style="normal" text-decoration="none" family="Comic Sans MS" text-anchor="middle" size="12">other thread</text><text id="ProcessOnText1119" fill="#000000" font-size="12" x="79.0" y="27.3" font-family="Comic Sans MS" font-weight="bold" font-style="normal" text-decoration="none" family="Comic Sans MS" text-anchor="middle" size="12">unparkSuccessor</text></g></g><g id="ProcessOnG1120" transform="matrix(1.0,0.0,0.0,1.0,736.0,389.0)" opacity="1.0"><path id="ProcessOnPath1121" d="M0.0 0.0L160.0 0.0L160.0 40.0L0.0 40.0Z" stroke="none" stroke-width="0.0" stroke-dasharray="none" opacity="1.0" fill="none"/><g id="ProcessOnG1122" transform="matrix(1.0,0.0,0.0,1.0,0.0,12.5)"><text id="ProcessOnText1123" fill="#000000" font-size="12" x="79.0" y="12.3" font-family="Comic Sans MS" font-weight="bold" font-style="normal" text-decoration="none" family="Comic Sans MS" text-anchor="middle" size="12">park</text></g></g><g id="ProcessOnG1124" transform="matrix(1.0,0.0,0.0,1.0,558.0,464.0)" opacity="1.0"><path id="ProcessOnPath1125" d="M0.0 0.0L160.0 0.0L160.0 40.0L0.0 40.0Z" stroke="none" stroke-width="0.0" stroke-dasharray="none" opacity="1.0" fill="none"/><g id="ProcessOnG1126" transform="matrix(1.0,0.0,0.0,1.0,0.0,12.5)"><text id="ProcessOnText1127" fill="#000000" font-size="12" x="79.0" y="12.3" font-family="Comic Sans MS" font-weight="bold" font-style="normal" text-decoration="none" family="Comic Sans MS" text-anchor="middle" size="12">unpark</text></g></g><g id="ProcessOnG1128" transform="matrix(1.0,0.0,0.0,1.0,646.5,99.0)" opacity="1.0"><path id="ProcessOnPath1129" d="M0.0 0.0L78.0 0.0L78.0 41.0L0.0 41.0Z" stroke="#323232" stroke-width="2.0" stroke-dasharray="none" opacity="1.0" fill="#ffffff"/><g id="ProcessOnG1130" transform="matrix(1.0,0.0,0.0,1.0,10.0,13.0)"><text id="ProcessOnText1131" fill="#000000" font-size="12" x="28.0" y="12.3" font-family="Comic Sans MS" font-weight="normal" font-style="normal" text-decoration="none" family="Comic Sans MS" text-anchor="middle" size="12">cancel</text></g></g><g id="ProcessOnG1132"><path id="ProcessOnPath1133" d="M685.5 190.0L685.5 165.0L685.5 165.0L685.5 155.2360679774998" stroke="#323232" stroke-width="2.0" stroke-dasharray="none" fill="none" marker-end="url(#ProcessOnMarker1134)"/></g><g id="ProcessOnG1136"><path id="ProcessOnPath1137" d="M724.5 119.5L973.0 119.5L973.0 206.7639320225002" stroke="#323232" stroke-width="2.0" stroke-dasharray="none" fill="none" marker-end="url(#ProcessOnMarker1138)"/></g><g id="ProcessOnG1140" transform="matrix(1.0,0.0,0.0,1.0,536.0,144.0)" opacity="1.0"><path id="ProcessOnPath1141" d="M0.0 0.0L160.0 0.0L160.0 40.0L0.0 40.0Z" stroke="none" stroke-width="0.0" stroke-dasharray="none" opacity="1.0" fill="none"/><g id="ProcessOnG1142" transform="matrix(1.0,0.0,0.0,1.0,0.0,5.0)"><text id="ProcessOnText1143" fill="#000000" font-size="12" x="79.0" y="12.3" font-family="Comic Sans MS" font-weight="bold" font-style="normal" text-decoration="none" family="Comic Sans MS" text-anchor="middle" size="12">timeout or</text><text id="ProcessOnText1144" fill="#000000" font-size="12" x="79.0" y="27.3" font-family="Comic Sans MS" font-weight="bold" font-style="normal" text-decoration="none" family="Comic Sans MS" text-anchor="middle" size="12">InterruptedException </text></g></g></g></g></svg>