<svg xmlns="http://www.w3.org/2000/svg" xmlns:xlink="http://www.w3.org/1999/xlink" id="processonSvg1000" viewBox="82.0 110.0 763.0 152.5" width="763.0" height="152.5"><defs id="ProcessOnDefs1001"><marker id="ProcessOnMarker1011" markerUnits="userSpaceOnUse" orient="auto" markerWidth="16.23606797749979" markerHeight="10.550836550532098" viewBox="-1.0 -1.3763819204711736 16.23606797749979 10.550836550532098" refX="-1.0" refY="3.8990363547948754"><path id="ProcessOnPath1012" d="M12.0 3.8990363547948754L0.0 7.798072709589751V0.0Z" stroke="#323232" stroke-width="2.0" fill="#323232" transform="matrix(1.0,0.0,0.0,1.0,0.0,0.0)"/></marker><marker id="ProcessOnMarker1031" markerUnits="userSpaceOnUse" orient="auto" markerWidth="16.23606797749979" markerHeight="10.550836550532098" viewBox="-1.0 -1.3763819204711736 16.23606797749979 10.550836550532098" refX="-1.0" refY="3.8990363547948754"><path id="ProcessOnPath1032" d="M12.0 3.8990363547948754L0.0 7.798072709589751V0.0Z" stroke="#323232" stroke-width="2.0" fill="#323232" transform="matrix(1.0,0.0,0.0,1.0,0.0,0.0)"/></marker><marker id="ProcessOnMarker1035" markerUnits="userSpaceOnUse" orient="auto" markerWidth="16.23606797749979" markerHeight="10.550836550532098" viewBox="-1.0 -1.3763819204711736 16.23606797749979 10.550836550532098" refX="-1.0" refY="3.8990363547948754"><path id="ProcessOnPath1036" d="M12.0 3.8990363547948754L0.0 7.798072709589751V0.0Z" stroke="#000000" stroke-width="2.0" fill="#000000" transform="matrix(1.0,0.0,0.0,1.0,0.0,0.0)"/></marker><marker id="ProcessOnMarker1039" markerUnits="userSpaceOnUse" orient="auto" markerWidth="16.23606797749979" markerHeight="10.550836550532098" viewBox="-1.0 -1.3763819204711736 16.23606797749979 10.550836550532098" refX="-1.0" refY="3.8990363547948754"><path id="ProcessOnPath1040" d="M12.0 3.8990363547948754L0.0 7.798072709589751V0.0Z" stroke="#323232" stroke-width="2.0" fill="#323232" transform="matrix(1.0,0.0,0.0,1.0,0.0,0.0)"/></marker><marker id="ProcessOnMarker1043" markerUnits="userSpaceOnUse" orient="auto" markerWidth="16.23606797749979" markerHeight="10.550836550532098" viewBox="-1.0 -1.3763819204711736 16.23606797749979 10.550836550532098" refX="-1.0" refY="3.8990363547948754"><path id="ProcessOnPath1044" d="M12.0 3.8990363547948754L0.0 7.798072709589751V0.0Z" stroke="#323232" stroke-width="2.0" fill="#323232" transform="matrix(1.0,0.0,0.0,1.0,0.0,0.0)"/></marker><marker id="ProcessOnMarker1047" markerUnits="userSpaceOnUse" orient="auto" markerWidth="16.23606797749979" markerHeight="10.550836550532098" viewBox="-1.0 -1.3763819204711736 16.23606797749979 10.550836550532098" refX="-1.0" refY="3.8990363547948754"><path id="ProcessOnPath1048" d="M12.0 3.8990363547948754L0.0 7.798072709589751V0.0Z" stroke="#323232" stroke-width="2.0" fill="#323232" transform="matrix(1.0,0.0,0.0,1.0,0.0,0.0)"/></marker><marker id="ProcessOnMarker1051" markerUnits="userSpaceOnUse" orient="auto" markerWidth="16.23606797749979" markerHeight="10.550836550532098" viewBox="-1.0 -1.3763819204711736 16.23606797749979 10.550836550532098" refX="-1.0" refY="3.8990363547948754"><path id="ProcessOnPath1052" d="M12.0 3.8990363547948754L0.0 7.798072709589751V0.0Z" stroke="#323232" stroke-width="2.0" fill="#323232" transform="matrix(1.0,0.0,0.0,1.0,0.0,0.0)"/></marker><marker id="ProcessOnMarker1055" markerUnits="userSpaceOnUse" orient="auto" markerWidth="16.23606797749979" markerHeight="10.550836550532098" viewBox="-1.0 -1.3763819204711736 16.23606797749979 10.550836550532098" refX="-1.0" refY="3.8990363547948754"><path id="ProcessOnPath1056" d="M12.0 3.8990363547948754L0.0 7.798072709589751V0.0Z" stroke="#323232" stroke-width="2.0" fill="#323232" transform="matrix(1.0,0.0,0.0,1.0,0.0,0.0)"/></marker></defs><g id="ProcessOnG1002"><path id="ProcessOnPath1003" d="M82.0 110.0H845.0V262.5H82.0V110.0Z" fill="#ffffff"/><g id="ProcessOnG1004"><g id="ProcessOnG1005" transform="matrix(1.0,0.0,0.0,1.0,102.0,151.0)" opacity="1.0"><path id="ProcessOnPath1006" d="M0.0 0.0L83.0 0.0L83.0 52.0L0.0 52.0Z" stroke="#b8b8b8" stroke-width="1.0" stroke-dasharray="none" opacity="1.0" fill="#cfcfcf"/><g id="ProcessOnG1007" transform="matrix(1.0,0.0,0.0,1.0,10.0,17.875)"><text id="ProcessOnText1008" fill="#000000" font-size="13" x="30.5" y="13.325" font-family="Comic Sans MS" font-weight="normal" font-style="normal" text-decoration="none" family="Comic Sans MS" text-anchor="middle" size="13">head</text></g></g><g id="ProcessOnG1009"><path id="ProcessOnPath1010" d="M260.0 187.0L222.5 187.0L222.5 187.0L200.2360679774998 187.0" stroke="#323232" stroke-width="2.0" stroke-dasharray="none" fill="none" marker-end="url(#ProcessOnMarker1011)"/></g><g id="ProcessOnG1013" transform="matrix(1.0,0.0,0.0,1.0,260.0,151.0)" opacity="1.0"><path id="ProcessOnPath1014" d="M0.0 0.0L83.0 0.0L83.0 52.0L0.0 52.0Z" stroke="#000000" stroke-width="1.0" stroke-dasharray="none" opacity="1.0" fill="#e6ffcc"/><g id="ProcessOnG1015" transform="matrix(1.0,0.0,0.0,1.0,10.0,17.875)"><text id="ProcessOnText1016" fill="#000000" font-size="13" x="30.5" y="13.325" font-family="Comic Sans MS" font-weight="normal" font-style="normal" text-decoration="none" family="Comic Sans MS" text-anchor="middle" size="13">node</text></g></g><g id="ProcessOnG1017" transform="matrix(1.0,0.0,0.0,1.0,421.0,151.0)" opacity="1.0"><path id="ProcessOnPath1018" d="M0.0 0.0L83.0 0.0L83.0 52.0L0.0 52.0Z" stroke="#000000" stroke-width="1.0" stroke-dasharray="none" opacity="1.0" fill="#ffffff"/><g id="ProcessOnG1019" transform="matrix(1.0,0.0,0.0,1.0,10.0,17.875)"><text id="ProcessOnText1020" fill="#000000" font-size="13" x="30.5" y="13.325" font-family="Comic Sans MS" font-weight="normal" font-style="normal" text-decoration="none" family="Comic Sans MS" text-anchor="middle" size="13">node</text></g></g><g id="ProcessOnG1021" transform="matrix(1.0,0.0,0.0,1.0,586.0,151.0)" opacity="1.0"><path id="ProcessOnPath1022" d="M0.0 0.0L83.0 0.0L83.0 52.0L0.0 52.0Z" stroke="#171717" stroke-width="1.0" stroke-dasharray="none" opacity="1.0" fill="#ffffff"/><g id="ProcessOnG1023" transform="matrix(1.0,0.0,0.0,1.0,10.0,17.875)"><text id="ProcessOnText1024" fill="#000000" font-size="13" x="30.5" y="13.325" font-family="Comic Sans MS" font-weight="normal" font-style="normal" text-decoration="none" family="Comic Sans MS" text-anchor="middle" size="13">node</text></g></g><g id="ProcessOnG1025" transform="matrix(1.0,0.0,0.0,1.0,742.0,151.0)" opacity="1.0"><path id="ProcessOnPath1026" d="M0.0 0.0L83.0 0.0L83.0 52.0L0.0 52.0Z" stroke="#171717" stroke-width="1.0" stroke-dasharray="none" opacity="1.0" fill="#ffffff"/><g id="ProcessOnG1027" transform="matrix(1.0,0.0,0.0,1.0,10.0,17.875)"><text id="ProcessOnText1028" fill="#000000" font-size="13" x="30.5" y="13.325" font-family="Comic Sans MS" font-weight="normal" font-style="normal" text-decoration="none" family="Comic Sans MS" text-anchor="middle" size="13">tail</text></g></g><g id="ProcessOnG1029"><path id="ProcessOnPath1030" d="M185.0 162.0L222.5 162.0L222.5 162.0L244.7639320225002 162.0" stroke="#323232" stroke-width="2.0" stroke-dasharray="none" fill="none" marker-end="url(#ProcessOnMarker1031)"/></g><g id="ProcessOnG1033"><path id="ProcessOnPath1034" d="M343.0 163.0L382.0 163.0L382.0 163.0L405.7639320225002 163.0" stroke="#000000" stroke-width="2.0" stroke-dasharray="none" fill="none" marker-end="url(#ProcessOnMarker1035)"/></g><g id="ProcessOnG1037"><path id="ProcessOnPath1038" d="M504.0 164.0L545.0 164.0L545.0 164.0L570.7639320225002 164.0" stroke="#323232" stroke-width="2.0" stroke-dasharray="none" fill="none" marker-end="url(#ProcessOnMarker1039)"/></g><g id="ProcessOnG1041"><path id="ProcessOnPath1042" d="M669.0 164.0L705.5 164.0L705.5 164.0L726.7639320225002 164.0" stroke="#323232" stroke-width="2.0" stroke-dasharray="none" fill="none" marker-end="url(#ProcessOnMarker1043)"/></g><g id="ProcessOnG1045"><path id="ProcessOnPath1046" d="M421.0 188.0L382.0 188.0L382.0 188.0L358.2360679774998 188.0" stroke="#323232" stroke-width="2.0" stroke-dasharray="none" fill="none" marker-end="url(#ProcessOnMarker1047)"/></g><g id="ProcessOnG1049"><path id="ProcessOnPath1050" d="M586.0 190.0L545.0 190.0L545.0 190.0L519.2360679774998 190.0" stroke="#323232" stroke-width="2.0" stroke-dasharray="none" fill="none" marker-end="url(#ProcessOnMarker1051)"/></g><g id="ProcessOnG1053"><path id="ProcessOnPath1054" d="M742.0 187.0L705.5 187.0L705.5 187.0L684.2360679774998 187.0" stroke="#323232" stroke-width="2.0" stroke-dasharray="none" fill="none" marker-end="url(#ProcessOnMarker1055)"/></g><g id="ProcessOnG1057" transform="matrix(1.0,0.0,0.0,1.0,143.0,130.0)" opacity="1.0"><path id="ProcessOnPath1058" d="M0.0 0.0L160.0 0.0L160.0 40.0L0.0 40.0Z" stroke="none" stroke-width="0.0" stroke-dasharray="none" opacity="1.0" fill="none"/><g id="ProcessOnG1059" transform="matrix(1.0,0.0,0.0,1.0,0.0,11.875)"><text id="ProcessOnText1060" fill="#000000" font-size="13" x="79.0" y="13.325" font-family="Comic Sans MS" font-weight="normal" font-style="normal" text-decoration="none" family="Comic Sans MS" text-anchor="middle" size="13">next</text></g></g><g id="ProcessOnG1061" transform="matrix(1.0,0.0,0.0,1.0,140.0,170.0)" opacity="1.0"><path id="ProcessOnPath1062" d="M0.0 0.0L160.0 0.0L160.0 46.0L0.0 46.0Z" stroke="none" stroke-width="0.0" stroke-dasharray="none" opacity="1.0" fill="none"/><g id="ProcessOnG1063" transform="matrix(1.0,0.0,0.0,1.0,0.0,14.875)"><text id="ProcessOnText1064" fill="#000000" font-size="13" x="79.0" y="13.325" font-family="Comic Sans MS" font-weight="normal" font-style="normal" text-decoration="none" family="Comic Sans MS" text-anchor="middle" size="13">prev</text></g></g><g id="ProcessOnG1065" transform="matrix(1.0,0.0,0.0,1.0,303.0,130.0)" opacity="1.0"><path id="ProcessOnPath1066" d="M0.0 0.0L160.0 0.0L160.0 40.0L0.0 40.0Z" stroke="none" stroke-width="0.0" stroke-dasharray="none" opacity="1.0" fill="none"/><g id="ProcessOnG1067" transform="matrix(1.0,0.0,0.0,1.0,0.0,11.875)"><text id="ProcessOnText1068" fill="#000000" font-size="13" x="79.0" y="13.325" font-family="Comic Sans MS" font-weight="normal" font-style="normal" text-decoration="none" family="Comic Sans MS" text-anchor="middle" size="13">next</text></g></g><g id="ProcessOnG1069" transform="matrix(1.0,0.0,0.0,1.0,303.0,176.0)" opacity="1.0"><path id="ProcessOnPath1070" d="M0.0 0.0L160.0 0.0L160.0 40.0L0.0 40.0Z" stroke="none" stroke-width="0.0" stroke-dasharray="none" opacity="1.0" fill="none"/><g id="ProcessOnG1071" transform="matrix(1.0,0.0,0.0,1.0,0.0,11.875)"><text id="ProcessOnText1072" fill="#000000" font-size="13" x="79.0" y="13.325" font-family="Comic Sans MS" font-weight="normal" font-style="normal" text-decoration="none" family="Comic Sans MS" text-anchor="middle" size="13">prev</text></g></g><g id="ProcessOnG1073" transform="matrix(1.0,0.0,0.0,1.0,468.0,130.0)" opacity="1.0"><path id="ProcessOnPath1074" d="M0.0 0.0L160.0 0.0L160.0 40.0L0.0 40.0Z" stroke="none" stroke-width="0.0" stroke-dasharray="none" opacity="1.0" fill="none"/><g id="ProcessOnG1075" transform="matrix(1.0,0.0,0.0,1.0,0.0,11.875)"><text id="ProcessOnText1076" fill="#000000" font-size="13" x="79.0" y="13.325" font-family="Comic Sans MS" font-weight="normal" font-style="normal" text-decoration="none" family="Comic Sans MS" text-anchor="middle" size="13">next</text></g></g><g id="ProcessOnG1077" transform="matrix(1.0,0.0,0.0,1.0,468.0,179.0)" opacity="1.0"><path id="ProcessOnPath1078" d="M0.0 0.0L160.0 0.0L160.0 40.0L0.0 40.0Z" stroke="none" stroke-width="0.0" stroke-dasharray="none" opacity="1.0" fill="none"/><g id="ProcessOnG1079" transform="matrix(1.0,0.0,0.0,1.0,0.0,11.875)"><text id="ProcessOnText1080" fill="#000000" font-size="13" x="79.0" y="13.325" font-family="Comic Sans MS" font-weight="normal" font-style="normal" text-decoration="none" family="Comic Sans MS" text-anchor="middle" size="13">prev</text></g></g><g id="ProcessOnG1081" transform="matrix(1.0,0.0,0.0,1.0,623.0,130.0)" opacity="1.0"><path id="ProcessOnPath1082" d="M0.0 0.0L160.0 0.0L160.0 40.0L0.0 40.0Z" stroke="none" stroke-width="0.0" stroke-dasharray="none" opacity="1.0" fill="none"/><g id="ProcessOnG1083" transform="matrix(1.0,0.0,0.0,1.0,0.0,11.875)"><text id="ProcessOnText1084" fill="#000000" font-size="13" x="79.0" y="13.325" font-family="Comic Sans MS" font-weight="normal" font-style="normal" text-decoration="none" family="Comic Sans MS" text-anchor="middle" size="13">next</text></g></g><g id="ProcessOnG1085" transform="matrix(1.0,0.0,0.0,1.0,628.0,176.0)" opacity="1.0"><path id="ProcessOnPath1086" d="M0.0 0.0L160.0 0.0L160.0 40.0L0.0 40.0Z" stroke="none" stroke-width="0.0" stroke-dasharray="none" opacity="1.0" fill="none"/><g id="ProcessOnG1087" transform="matrix(1.0,0.0,0.0,1.0,0.0,11.875)"><text id="ProcessOnText1088" fill="#000000" font-size="13" x="79.0" y="13.325" font-family="Comic Sans MS" font-weight="normal" font-style="normal" text-decoration="none" family="Comic Sans MS" text-anchor="middle" size="13">prev</text></g></g><g id="ProcessOnG1089" transform="matrix(1.0,0.0,0.0,1.0,201.0,216.0)" opacity="1.0"><path id="ProcessOnPath1090" d="M0.0 0.0L523.0 0.0L523.0 23.0L0.0 23.0Z" stroke="none" stroke-width="0.0" stroke-dasharray="none" opacity="1.0" fill="none"/><g id="ProcessOnG1091" transform="matrix(1.0,0.0,0.0,1.0,0.0,-3.5)"><text id="ProcessOnText1092" fill="#000000" font-size="12" x="260.5" y="12.3" font-family="Comic Sans MS" font-weight="normal" font-style="normal" text-decoration="none" family="Comic Sans MS" text-anchor="middle" size="12">head是dummy节点，它的next节点为当前持有资源的节点</text><text id="ProcessOnText1093" fill="#000000" font-size="12" x="260.5" y="27.3" font-family="Comic Sans MS" font-weight="normal" font-style="normal" text-decoration="none" family="Comic Sans MS" text-anchor="middle" size="12"> node和tail是正常节点，具有thread和waitStatus字段</text></g></g></g></g></svg>